<svg id="Artwork_16" data-name="Artwork 16" xmlns="http://www.w3.org/2000/svg" width="20" height="18" viewBox="0 0 20 18">
  <path id="Path_269" data-name="Path 269" d="M18.5,1H16V.5a.5.5,0,1,0-1,0V1H5V.5a.5.5,0,1,0-1,0V1H1.5A1.5,1.5,0,0,0,0,2.5v14A1.5,1.5,0,0,0,1.5,18h17A1.5,1.5,0,0,0,20,16.5V2.5A1.5,1.5,0,0,0,18.5,1ZM1.5,2H4V3.5a.5.5,0,0,0,1,0V2H15V3.5a.5.5,0,0,0,1,0V2h2.5a.5.5,0,0,1,.5.5V5H1V2.5A.5.5,0,0,1,1.5,2Zm17,15H1.5a.5.5,0,0,1-.5-.5V6H19V16.5A.5.5,0,0,1,18.5,17Z" fill="#3f5d7e"/>
  <path id="Path_270" data-name="Path 270" d="M7.5,9h-1a.5.5,0,0,1,0-1h1a.5.5,0,0,1,0,1Z" fill="#3f5d7e"/>
  <path id="Path_271" data-name="Path 271" d="M10.5,9h-1a.5.5,0,0,1,0-1h1a.5.5,0,0,1,0,1Z" fill="#3f5d7e"/>
  <path id="Path_272" data-name="Path 272" d="M13.5,9h-1a.5.5,0,0,1,0-1h1a.5.5,0,0,1,0,1Z" fill="#3f5d7e"/>
  <path id="Path_273" data-name="Path 273" d="M16.5,9h-1a.5.5,0,0,1,0-1h1a.5.5,0,0,1,0,1Z" fill="#3f5d7e"/>
  <path id="Path_274" data-name="Path 274" d="M4.5,11h-1a.5.5,0,0,1,0-1h1a.5.5,0,0,1,0,1Z" fill="#3f5d7e"/>
  <path id="Path_275" data-name="Path 275" d="M7.5,11h-1a.5.5,0,0,1,0-1h1a.5.5,0,0,1,0,1Z" fill="#3f5d7e"/>
  <path id="Path_276" data-name="Path 276" d="M10.5,11h-1a.5.5,0,0,1,0-1h1a.5.5,0,0,1,0,1Z" fill="#3f5d7e"/>
  <path id="Path_277" data-name="Path 277" d="M13.5,11h-1a.5.5,0,0,1,0-1h1a.5.5,0,0,1,0,1Z" fill="#3f5d7e"/>
  <path id="Path_278" data-name="Path 278" d="M16.5,11h-1a.5.5,0,0,1,0-1h1a.5.5,0,0,1,0,1Z" fill="#3f5d7e"/>
  <path id="Path_279" data-name="Path 279" d="M4.5,13h-1a.5.5,0,0,1,0-1h1a.5.5,0,0,1,0,1Z" fill="#3f5d7e"/>
  <path id="Path_280" data-name="Path 280" d="M7.5,13h-1a.5.5,0,0,1,0-1h1a.5.5,0,0,1,0,1Z" fill="#3f5d7e"/>
  <path id="Path_281" data-name="Path 281" d="M10.5,13h-1a.5.5,0,0,1,0-1h1a.5.5,0,0,1,0,1Z" fill="#3f5d7e"/>
  <path id="Path_282" data-name="Path 282" d="M13.5,13h-1a.5.5,0,0,1,0-1h1a.5.5,0,0,1,0,1Z" fill="#3f5d7e"/>
  <path id="Path_283" data-name="Path 283" d="M16.5,13h-1a.5.5,0,0,1,0-1h1a.5.5,0,0,1,0,1Z" fill="#3f5d7e"/>
  <path id="Path_284" data-name="Path 284" d="M4.5,15h-1a.5.5,0,0,1,0-1h1a.5.5,0,0,1,0,1Z" fill="#3f5d7e"/>
  <path id="Path_285" data-name="Path 285" d="M7.5,15h-1a.5.5,0,0,1,0-1h1a.5.5,0,0,1,0,1Z" fill="#3f5d7e"/>
  <path id="Path_286" data-name="Path 286" d="M10.5,15h-1a.5.5,0,0,1,0-1h1a.5.5,0,0,1,0,1Z" fill="#3f5d7e"/>
  <path id="Path_287" data-name="Path 287" d="M13.5,15h-1a.5.5,0,0,1,0-1h1a.5.5,0,0,1,0,1Z" fill="#3f5d7e"/>
  <path id="Path_288" data-name="Path 288" d="M16.5,15h-1a.5.5,0,0,1,0-1h1a.5.5,0,0,1,0,1Z" fill="#3f5d7e"/>
</svg>
