<svg xmlns="http://www.w3.org/2000/svg" width="32.741" height="32.741" viewBox="0 0 32.741 32.741">
  <g id="Email" transform="translate(-302.037 -4236)">
    <path id="Path_947" data-name="Path 947" d="M16.37,32.741a16.37,16.37,0,1,1,16.37-16.37A16.37,16.37,0,0,1,16.37,32.741ZM16.37.8A15.572,15.572,0,1,0,31.942,16.37,15.572,15.572,0,0,0,16.37.8Z" transform="translate(302.037 4236)" fill="#fff"/>
    <g id="Artwork_8" data-name="Artwork 8" transform="translate(311.037 4248)">
      <path id="Path_1279" data-name="Path 1279" d="M13.236,0H1.134A1.134,1.134,0,0,0,0,1.134V7.941A1.134,1.134,0,0,0,1.134,9.076h12.1A1.134,1.134,0,0,0,14.37,7.941V1.134A1.134,1.134,0,0,0,13.236,0Zm0,.756h.076L7.639,4.538a.832.832,0,0,1-.908,0L1.059.756Zm0,7.563H1.134a.378.378,0,0,1-.378-.378v-6.5l5.6,3.782a1.588,1.588,0,0,0,1.664,0l5.6-3.782v6.5A.378.378,0,0,1,13.236,8.319Z" transform="translate(0 0)" fill="#fff"/>
    </g>
  </g>
</svg>
