<svg xmlns="http://www.w3.org/2000/svg" width="32.741" height="32.741" viewBox="0 0 32.741 32.741">
  <g id="Facebook" transform="translate(-191.983 -4236)">
    <path id="Path_943" data-name="Path 943" d="M16.37,32.741a16.37,16.37,0,1,1,16.37-16.37A16.37,16.37,0,0,1,16.37,32.741ZM16.37.8A15.572,15.572,0,1,0,31.942,16.37,15.572,15.572,0,0,0,16.37.8Z" transform="translate(191.983 4236)" fill="#fff"/>
    <path id="Path_944" data-name="Path 944" d="M32.3,27.74h1.477V26.3a3.743,3.743,0,0,1,.479-2.236,2.635,2.635,0,0,1,2.316-1.078,9.343,9.343,0,0,1,2.675.279l-.359,2.2a4.991,4.991,0,0,0-1.2-.16c-.559,0-1.078.2-1.078.8V27.78h2.356l-.16,2.156H36.572v7.427H33.777V29.9H32.3Z" transform="translate(172.579 4222.195)" fill="#fff"/>
  </g>
</svg>
