<svg xmlns="http://www.w3.org/2000/svg" width="17.902" height="17.902" viewBox="0 0 17.902 17.902">
  <g id="Group_1274" data-name="Group 1274" transform="translate(-474 -1164)">
    <path id="Path_1269" data-name="Path 1269" d="M14.51,6.184A.471.471,0,0,0,13.851,6L9.234,8.728,5.654,6.184a.471.471,0,0,0-.565.754L8.951,9.671h.471l4.9-2.827a.471.471,0,0,0,.188-.66Z" transform="translate(473.717 1163.657)" fill="#3f5d7e"/>
    <g id="Group_1273" data-name="Group 1273">
      <path id="Path_1270" data-name="Path 1270" d="M8.951,0A8.951,8.951,0,1,0,17.9,8.951,8.951,8.951,0,0,0,8.951,0Zm0,16.96A8.009,8.009,0,1,1,16.96,8.951,8.009,8.009,0,0,1,8.951,16.96Z" transform="translate(474 1164)" fill="#3f5d7e"/>
    </g>
  </g>
</svg>
