<svg xmlns="http://www.w3.org/2000/svg" width="32.741" height="32.741" viewBox="0 0 32.741 32.741">
  <g id="Instagran" transform="translate(-246.965 -4236)">
    <path id="Path_947" data-name="Path 947" d="M16.37,32.741a16.37,16.37,0,1,1,16.37-16.37A16.37,16.37,0,0,1,16.37,32.741ZM16.37.8A15.572,15.572,0,1,0,31.942,16.37,15.572,15.572,0,0,0,16.37.8Z" transform="translate(246.965 4236)" fill="#fff"/>
    <path id="Path_948" data-name="Path 948" d="M34.579,23H25.795A2.8,2.8,0,0,0,23,25.795v8.784a2.8,2.8,0,0,0,2.795,2.795h8.784a2.8,2.8,0,0,0,2.795-2.795V25.795A2.8,2.8,0,0,0,34.579,23Zm.8,1.637H35.7v2.436H33.3v-2.4ZM28.151,28.71a2.515,2.515,0,1,1-.479,1.477,2.515,2.515,0,0,1,.479-1.477Zm7.826,5.869a1.4,1.4,0,0,1-1.4,1.4H25.795a1.358,1.358,0,0,1-1.4-1.4V28.71h2.156a3.913,3.913,0,1,0,7.267,0h2.156Z" transform="translate(233.149 4222.184)" fill="#fff"/>
  </g>
</svg>
