<svg xmlns="http://www.w3.org/2000/svg" width="32.741" height="32.741" viewBox="0 0 32.741 32.741">
  <g id="Linkeding" transform="translate(-137 -4236)">
    <path id="Path_949" data-name="Path 949" d="M16.37,32.741a16.37,16.37,0,1,1,16.37-16.37A16.37,16.37,0,0,1,16.37,32.741ZM16.37.8A15.572,15.572,0,1,0,31.942,16.37,15.572,15.572,0,0,0,16.37.8Z" transform="translate(137 4236)" fill="#fff"/>
    <path id="Path_950" data-name="Path 950" d="M26.154,36.009H23.359V27.025h2.795Zm-1.477-10.1h-.04A1.557,1.557,0,0,1,23,24.35a1.578,1.578,0,0,1,1.717-1.557,1.563,1.563,0,1,1-.04,3.114Zm12.7,10.1H34.18V31.378c0-1.2-.479-2.036-1.6-2.036a1.6,1.6,0,0,0-1.517,1.118,2.036,2.036,0,0,0-.08.719v4.831H27.871s.04-8.225,0-8.984h3.154v1.437a2.916,2.916,0,0,1,2.795-1.477,3.687,3.687,0,0,1,3.554,4.033Z" transform="translate(123.183 4222.311)" fill="#fff"/>
  </g>
</svg>
