<svg xmlns="http://www.w3.org/2000/svg" width="85" height="85" viewBox="0 0 85 85">
  <g id="manage" transform="translate(-141 -2629)">
    <g id="Group_449" data-name="Group 449" transform="translate(141 2629)">
      <rect id="rectangle-16" width="85" height="85" rx="42.5" fill="#3acce1"/>
    </g>
    <g id="Artwork_23" data-name="Artwork 23" transform="translate(160.289 2648.139)">
      <g id="Group_938" data-name="Group 938" transform="translate(0 0)">
        <path id="Path_519" data-name="Path 519" d="M17.338,46.035H17.1a23.716,23.716,0,0,1-6.166-2.609,1.186,1.186,0,0,1-.474-1.66,4.743,4.743,0,0,0-4.269-7.115l-2.372.474a1.186,1.186,0,0,1-1.66-.474A23.717,23.717,0,0,1,.025,28.959a1.186,1.186,0,0,1,.711-1.423,4.743,4.743,0,0,0,3.32-4.506,4.743,4.743,0,0,0-3.32-4.506A1.186,1.186,0,0,1,.025,17.1a23.717,23.717,0,0,1,2.609-6.166,1.186,1.186,0,0,1,1.66-.474l2.372.474A4.743,4.743,0,0,0,10.935,3.82a1.186,1.186,0,0,1,.474-1.66A23.716,23.716,0,0,1,17.1.025a1.186,1.186,0,0,1,1.423.711,4.743,4.743,0,0,0,4.506,3.32A4.743,4.743,0,0,0,27.536.737,1.186,1.186,0,0,1,28.959.025a23.716,23.716,0,0,1,6.166,2.609,1.186,1.186,0,0,1,.474,1.66,4.743,4.743,0,0,0,4.269,7.115l2.372-.474a1.186,1.186,0,0,1,1.66.474,23.717,23.717,0,0,1,2.609,6.166A1.186,1.186,0,0,1,45.8,19a4.743,4.743,0,0,0,0,9.012,1.186,1.186,0,0,1,.711,1.423A23.716,23.716,0,0,1,43.9,35.6a1.186,1.186,0,0,1-1.66.474L39.868,35.6A4.743,4.743,0,0,0,35.6,42.715a1.186,1.186,0,0,1-.474,1.66,23.716,23.716,0,0,1-6.166,2.609,1.186,1.186,0,0,1-1.423-.711,4.743,4.743,0,0,0-9.012,0,1.186,1.186,0,0,1-1.186.711Zm5.692-6.4a7.115,7.115,0,0,1,6.4,3.795L32.991,42a7.115,7.115,0,0,1,6.64-9.487L42,32.991a21.107,21.107,0,0,0,1.423-3.557,7.115,7.115,0,0,1,0-12.57A21.344,21.344,0,0,0,42,13.306l-2.372.474a7.115,7.115,0,0,1-6.64-9.487L29.433,2.871a7.115,7.115,0,0,1-6.4,3.557,7.115,7.115,0,0,1-6.4-3.795L13.069,4.057a7.115,7.115,0,0,1-6.64,9.487l-2.372-.474a21.108,21.108,0,0,0-1.423,3.557,7.115,7.115,0,0,1,3.795,6.4,7.115,7.115,0,0,1-3.795,6.4,21.107,21.107,0,0,0,1.423,3.557l2.372-.474A7.115,7.115,0,0,1,13.069,42l3.557,1.423a7.115,7.115,0,0,1,6.4-3.795Z" transform="translate(0.018 0.018)" fill="#fff"/>
        <path id="Path_520" data-name="Path 520" d="M14.751,22.8A8.051,8.051,0,1,1,22.8,14.751,8.051,8.051,0,0,1,14.751,22.8Zm0-13.418a5.367,5.367,0,1,0,5.367,5.367A5.367,5.367,0,0,0,14.751,9.384Z" transform="translate(8.311 8.325)" fill="#fff"/>
      </g>
    </g>
  </g>
</svg>
