<svg xmlns="http://www.w3.org/2000/svg" width="85" height="85" viewBox="0 0 85 85">
  <g id="money" transform="translate(-141 -2734)">
    <g id="Group_449" data-name="Group 449" transform="translate(141 2734)">
      <rect id="rectangle-16" width="85" height="85" rx="42.5" fill="#3acce1"/>
    </g>
    <g id="Artwork_7" data-name="Artwork 7" transform="translate(162.418 2755.417)">
      <g id="Group_1202" data-name="Group 1202" transform="translate(0 0)">
        <path id="Path_1275" data-name="Path 1275" d="M45.6,59.384A13.884,13.884,0,1,0,59.484,45.5,13.884,13.884,0,0,0,45.6,59.384Zm25.778,0a11.91,11.91,0,1,1-11.91-11.91,11.91,11.91,0,0,1,11.91,11.91Zm0,0" transform="translate(-38.099 -38.007)" fill="#fff"/>
        <path id="Path_1276" data-name="Path 1276" d="M107.038,82.7v1.546a4.212,4.212,0,0,0-1.563.724,3.466,3.466,0,0,0-1.579,3.619,3.292,3.292,0,0,0,2.945,2.352c3.405.477,3.948.987,3.8,2.171a1.611,1.611,0,0,1-1.086,1.349,5.014,5.014,0,0,1-4.721-1.152L103.6,94.857a8.258,8.258,0,0,0,3.438,1.662v1.76h1.974V96.634A4.886,4.886,0,0,0,110.3,96.3a3.586,3.586,0,0,0,2.3-2.945,3.178,3.178,0,0,0-1.727-3.405,11.808,11.808,0,0,0-3.767-.971,1.436,1.436,0,0,1-1.3-.872,1.687,1.687,0,0,1,.839-1.546,2.5,2.5,0,0,1,2.484-.23,5.478,5.478,0,0,1,1.448.806l.658-.773.642-.757a7.287,7.287,0,0,0-1.991-1.135,5.872,5.872,0,0,0-.855-.247V82.7Zm0,0" transform="translate(-86.557 -69.087)" fill="#fff"/>
        <path id="Path_1277" data-name="Path 1277" d="M21.369,1.933A19.264,19.264,0,0,1,32.983,5.8H30.4V7.773h6.35V1.423H34.777V4.68A21.369,21.369,0,0,0,0,21.328H1.974a19.428,19.428,0,0,1,19.4-19.4Zm0,0" transform="translate(0 0.049)" fill="#fff"/>
        <path id="Path_1278" data-name="Path 1278" d="M72.53,129.9a19.412,19.412,0,0,1-30.763,15.743H44.35v-1.974H38v6.35h1.974v-3.257A21.369,21.369,0,0,0,74.5,129.9Zm0,0" transform="translate(-31.749 -108.523)" fill="#fff"/>
      </g>
    </g>
  </g>
</svg>
