<svg xmlns="http://www.w3.org/2000/svg" width="85" height="85" viewBox="0 0 85 85">
  <g id="time" transform="translate(-141 -2524)">
    <g id="Group_449" data-name="Group 449" transform="translate(141 2524)">
      <rect id="rectangle-16" width="85" height="85" rx="42.5" fill="#3acce1"/>
    </g>
    <g id="Artwork_6" data-name="Artwork 6" transform="translate(159.932 2542.932)">
      <g id="Group_1203" data-name="Group 1203">
        <path id="Path_1271" data-name="Path 1271" d="M30.124,6.6A1.236,1.236,0,0,0,28.393,6.1L16.276,13.275,6.878,6.6A1.236,1.236,0,0,0,5.395,8.577l10.139,7.172H16.77L29.629,8.329A1.236,1.236,0,0,0,30.124,6.6Z" transform="translate(7.217 8.734)" fill="#fff"/>
        <path id="Path_1272" data-name="Path 1272" d="M23.493,0A23.493,23.493,0,1,0,46.986,23.493,23.493,23.493,0,0,0,23.493,0Zm0,44.513a21.02,21.02,0,1,1,21.02-21.02,21.02,21.02,0,0,1-21.02,21.02Z" fill="#fff"/>
      </g>
    </g>
  </g>
</svg>
