<svg id="Layer_1" data-name="Layer 1" xmlns="http://www.w3.org/2000/svg" xmlns:xlink="http://www.w3.org/1999/xlink" viewBox="0 0 664.17 195.53"><defs><style>.cls-1{fill:url(#New_Gradient_Swatch_16);}.cls-2{fill:url(#New_Gradient_Swatch_16-2);}.cls-3{fill:url(#New_Gradient_Swatch_16-3);}.cls-4{fill:url(#New_Gradient_Swatch_16-4);}.cls-5{fill:url(#New_Gradient_Swatch_16-5);}.cls-6{fill:url(#New_Gradient_Swatch_16-6);}.cls-7,.cls-8{stroke-miterlimit:10;stroke-width:2.48px;}.cls-7{fill:url(#New_Gradient_Swatch_16-7);stroke:url(#New_Gradient_Swatch_16-8);}.cls-8{fill:none;stroke:url(#linear-gradient);}</style><linearGradient id="New_Gradient_Swatch_16" x1="565" y1="132.39" x2="631.38" y2="66.02" gradientUnits="userSpaceOnUse"><stop offset="0" stop-color="#3f5d7e"/><stop offset="0.47" stop-color="#3c6387"/><stop offset="0.75" stop-color="#2b4768"/><stop offset="1" stop-color="#1d3150"/></linearGradient><linearGradient id="New_Gradient_Swatch_16-2" x1="29.74" y1="132.39" x2="96.11" y2="66.02" xlink:href="#New_Gradient_Swatch_16"/><linearGradient id="New_Gradient_Swatch_16-3" x1="207.98" y1="136.91" x2="274.03" y2="70.87" xlink:href="#New_Gradient_Swatch_16"/><linearGradient id="New_Gradient_Swatch_16-4" x1="292.69" y1="148.36" x2="368.35" y2="72.7" xlink:href="#New_Gradient_Swatch_16"/><linearGradient id="New_Gradient_Swatch_16-5" x1="385.13" y1="146.38" x2="470.96" y2="60.55" xlink:href="#New_Gradient_Swatch_16"/><linearGradient id="New_Gradient_Swatch_16-6" x1="478.26" y1="133.72" x2="573.82" y2="38.16" xlink:href="#New_Gradient_Swatch_16"/><linearGradient id="New_Gradient_Swatch_16-7" x1="139.2" y1="130.03" x2="205.71" y2="63.52" xlink:href="#New_Gradient_Swatch_16"/><linearGradient id="New_Gradient_Swatch_16-8" x1="138.11" y1="131.11" x2="207.17" y2="62.05" xlink:href="#New_Gradient_Swatch_16"/><linearGradient id="linear-gradient" x1="106" y1="101.29" x2="160.89" y2="101.29" gradientUnits="userSpaceOnUse"><stop offset="0" stop-color="#1d3150"/><stop offset="0.25" stop-color="#2b4768"/><stop offset="0.53" stop-color="#3c6387"/><stop offset="1" stop-color="#3f5d7e"/></linearGradient></defs><title>logo</title><path class="cls-1" d="M599.94,90.19h15V86.73c0-10.77-5.29-16.79-15-16.79-8.39,0-17.15,2-25.54,4.56l-4.56-17.33c9.67-3.1,19.89-5.65,30.1-5.65,21.9,0,36.49,13.68,36.49,35.21v32.65c0,18.07-16.6,31.57-36.12,31.57-20.44,0-36.12-13.69-36.12-31.57C564.19,100.05,578.78,90.19,599.94,90.19Zm.37,42.33c9.12,0,14.59-6.57,14.59-13.14v-13.5H599.76c-10.22,0-13.86,6.21-13.86,13.14C585.9,125.77,590.64,132.52,600.31,132.52Z"/><path class="cls-2" d="M64.68,90.19h15V86.73c0-10.77-5.29-16.79-15-16.79-8.39,0-17.15,2-25.54,4.56L34.58,57.17c9.67-3.1,19.88-5.65,30.1-5.65,21.89,0,36.49,13.68,36.49,35.21v32.65c0,18.07-16.6,31.57-36.12,31.57-20.44,0-36.13-13.69-36.13-31.57C28.92,100.05,43.52,90.19,64.68,90.19Zm.37,42.33c9.12,0,14.59-6.57,14.59-13.14v-13.5H64.5c-10.22,0-13.87,6.21-13.87,13.14C50.63,125.77,55.38,132.52,65.05,132.52Z"/><path class="cls-3" d="M200.6,90.74c0-25.54,16.78-39.22,37.4-39.22,20.8,0,37.58,14.59,37.58,35.76v20.06H221.76v3.47c0,14.78,7.11,21.71,19.34,21.71,8.94,0,17.33-1.82,25.72-4.38l4.2,17.52A79.55,79.55,0,0,1,241.1,151c-24.08,0-40.5-13.87-40.5-40.14Zm53.63.91V87.28c0-9.86-6.38-17.34-16.23-17.34-9.49,0-16.24,6.94-16.24,18.61v3.1Z"/><path class="cls-4" d="M292.91,90.56c0-25.54,17-39,37.76-39,20.62,0,37.4,13.5,37.4,39v58H346.73V91.47c0-14.23-6.39-21.53-16.06-21.53-9.85,0-16.6,7.3-16.6,21.53v57.1H292.91Z"/><path class="cls-5" d="M381,52h21.35l8.39,59.29c1.64,10.95,5.47,17,14.05,17h6.75L441,52h21.35L444.87,185.15h-21L429,146.66h-4.92c-21.53,0-31.56-13.68-34.48-33.57Z"/><path class="cls-6" d="M473.7,91.29c0-27,17.69-39.77,36.85-39.77A37.33,37.33,0,0,1,529.16,57V15h21.53v96.33c0,25.17-17.88,39.59-38.5,39.59-20.8,0-38.49-14.42-38.49-39.59Zm38.49,41.23c9.67,0,17-7.12,17-22.08V74.87C523.69,72,518,69.94,512.38,69.94c-9.67,0-17.52,5.84-17.52,22.26v18.24C494.86,125.4,502.52,132.52,512.19,132.52Z"/><path class="cls-7" d="M194.71,52.53l-31,97.53h-4.47s-4.1-13.9-7.56-25.68c2.07-8.85,20.49-71.85,20.49-71.85Z"/><path class="cls-8" d="M159.23,150.06H141.67a4.06,4.06,0,0,1-3.86-2.82L107.7,52.53h22.55c.07.2,19.28,64.63,21.42,71.85C155.13,136.16,159.23,150.06,159.23,150.06Z"/></svg>