<svg id="Layer_1" data-name="Layer 1" xmlns="http://www.w3.org/2000/svg" viewBox="0 0 499.16 195.53"><defs><style>.cls-1,.cls-2{stroke:#000;stroke-miterlimit:10;stroke-width:1.41px;}.cls-2{fill:none;}</style></defs><title>logo-white</title><path d="M401.23,92.15h8.48v-2c0-6.11-3-9.52-8.48-9.52a50.92,50.92,0,0,0-14.5,2.59l-2.58-9.84c5.48-1.76,11.28-3.21,17.08-3.21,12.42,0,20.7,7.77,20.7,20v18.53c0,10.25-9.42,17.91-20.5,17.91-11.59,0-20.49-7.77-20.49-17.91C380.94,97.74,389.22,92.15,401.23,92.15Zm.2,24c5.18,0,8.28-3.72,8.28-7.45v-7.66h-8.59c-5.79,0-7.86,3.52-7.86,7.45S396,116.16,401.43,116.16Z"/><path d="M97.52,92.15H106v-2c0-6.11-3-9.52-8.49-9.52A50.86,50.86,0,0,0,83,83.25l-2.59-9.84c5.49-1.76,11.28-3.21,17.08-3.21,12.42,0,20.7,7.77,20.7,20v18.53c0,10.25-9.42,17.91-20.49,17.91-11.6,0-20.5-7.77-20.5-17.91C77.23,97.74,85.51,92.15,97.52,92.15Zm.21,24c5.17,0,8.28-3.72,8.28-7.45v-7.66H97.42c-5.8,0-7.87,3.52-7.87,7.45S92.24,116.16,97.73,116.16Z"/><path d="M174.64,92.46c0-14.49,9.52-22.26,21.22-22.26s21.32,8.28,21.32,20.29v11.39H186.65v2c0,8.38,4,12.31,11,12.31a49.56,49.56,0,0,0,14.59-2.48l2.38,9.94a45,45,0,0,1-17,3c-13.67,0-23-7.87-23-22.77Zm30.43.52V90.49c0-5.59-3.62-9.83-9.21-9.83-5.38,0-9.21,3.93-9.21,10.56V93Z"/><path d="M227,92.35c0-14.49,9.62-22.15,21.42-22.15s21.22,7.66,21.22,22.15v32.92H257.55V92.87c0-8.07-3.62-12.21-9.11-12.21S239,84.8,239,92.87v32.4H227Z"/><path d="M277,70.46h12.11l4.76,33.64c.93,6.21,3.11,9.63,8,9.63h3.83l5.39-43.27h12.11L313.24,146h-11.9l2.9-21.84h-2.8c-12.21,0-17.91-7.77-19.56-19Z"/><path d="M329.6,92.77c0-15.32,10-22.57,20.91-22.57a21.28,21.28,0,0,1,10.56,3.11V49.5h12.21v54.66c0,14.28-10.15,22.46-21.84,22.46s-21.84-8.18-21.84-22.46Zm21.84,23.39c5.48,0,9.63-4,9.63-12.52V83.45a20.68,20.68,0,0,0-9.53-2.79c-5.48,0-9.94,3.31-9.94,12.63v10.35C341.6,112.13,346,116.16,351.44,116.16Z"/><path class="cls-1" d="M171.3,70.78l-17.6,55.34h-2.53l-4.3-14.57c1.18-5,11.63-40.77,11.63-40.77Z"/><path class="cls-2" d="M151.17,126.12h-10a2.29,2.29,0,0,1-2.18-1.6L121.93,70.78h12.8c0,.11,10.94,36.67,12.14,40.77Z"/></svg>