<svg id="Layer_1" data-name="Layer 1" xmlns="http://www.w3.org/2000/svg" xmlns:xlink="http://www.w3.org/1999/xlink" viewBox="0 0 1280 1024"><defs><style>.cls-1{fill:url(#New_Gradient_Swatch_16);}.cls-2{fill:url(#New_Gradient_Swatch_16-2);}.cls-3{fill:url(#New_Gradient_Swatch_16-3);}.cls-4{fill:url(#New_Gradient_Swatch_16-4);}.cls-5{fill:url(#New_Gradient_Swatch_16-5);}.cls-6{fill:url(#New_Gradient_Swatch_16-6);}.cls-7,.cls-8{stroke-miterlimit:10;stroke-width:2.48px;}.cls-7{fill:url(#New_Gradient_Swatch_16-7);stroke:url(#New_Gradient_Swatch_16-8);}.cls-8{fill:none;stroke:url(#linear-gradient);}</style><linearGradient id="New_Gradient_Swatch_16" x1="930.72" y1="544.3" x2="997.1" y2="477.93" gradientUnits="userSpaceOnUse"><stop offset="0" stop-color="#3f5d7e"/><stop offset="0.47" stop-color="#3c6387"/><stop offset="0.75" stop-color="#2b4768"/><stop offset="1" stop-color="#1d3150"/></linearGradient><linearGradient id="New_Gradient_Swatch_16-2" x1="395.46" y1="544.3" x2="461.83" y2="477.93" xlink:href="#New_Gradient_Swatch_16"/><linearGradient id="New_Gradient_Swatch_16-3" x1="573.7" y1="548.82" x2="639.75" y2="482.77" xlink:href="#New_Gradient_Swatch_16"/><linearGradient id="New_Gradient_Swatch_16-4" x1="658.41" y1="560.26" x2="734.07" y2="484.61" xlink:href="#New_Gradient_Swatch_16"/><linearGradient id="New_Gradient_Swatch_16-5" x1="750.85" y1="558.29" x2="836.69" y2="472.46" xlink:href="#New_Gradient_Swatch_16"/><linearGradient id="New_Gradient_Swatch_16-6" x1="843.99" y1="545.63" x2="939.54" y2="450.07" xlink:href="#New_Gradient_Swatch_16"/><linearGradient id="New_Gradient_Swatch_16-7" x1="504.92" y1="541.94" x2="571.43" y2="475.43" xlink:href="#New_Gradient_Swatch_16"/><linearGradient id="New_Gradient_Swatch_16-8" x1="503.83" y1="543.02" x2="572.89" y2="473.95" xlink:href="#New_Gradient_Swatch_16"/><linearGradient id="linear-gradient" x1="471.72" y1="513.2" x2="526.61" y2="513.2" gradientUnits="userSpaceOnUse"><stop offset="0" stop-color="#1d3150"/><stop offset="0.25" stop-color="#2b4768"/><stop offset="0.53" stop-color="#3c6387"/><stop offset="1" stop-color="#3f5d7e"/></linearGradient></defs><title>logo</title><path class="cls-1" d="M965.67,502.1h15v-3.46c0-10.77-5.29-16.79-15-16.79-8.4,0-17.15,2-25.55,4.56l-4.56-17.33c9.67-3.1,19.89-5.65,30.11-5.65,21.89,0,36.48,13.68,36.48,35.21v32.65c0,18.06-16.6,31.57-36.12,31.57-20.43,0-36.12-13.69-36.12-31.57C929.91,512,944.5,502.1,965.67,502.1Zm.36,42.33c9.12,0,14.59-6.57,14.59-13.14v-13.5H965.48c-10.21,0-13.86,6.21-13.86,13.14C951.62,537.68,956.36,544.43,966,544.43Z"/><path class="cls-2" d="M430.4,502.1h15v-3.46c0-10.77-5.29-16.79-15-16.79-8.39,0-17.15,2-25.54,4.56l-4.56-17.33c9.67-3.1,19.89-5.65,30.1-5.65,21.9,0,36.49,13.68,36.49,35.21v32.65c0,18.06-16.6,31.57-36.12,31.57-20.44,0-36.13-13.69-36.13-31.57C394.64,512,409.24,502.1,430.4,502.1Zm.37,42.33c9.12,0,14.59-6.57,14.59-13.14v-13.5H430.22c-10.22,0-13.87,6.21-13.87,13.14C416.35,537.68,421.1,544.43,430.77,544.43Z"/><path class="cls-3" d="M566.32,502.65c0-25.54,16.78-39.22,37.4-39.22,20.8,0,37.58,14.59,37.58,35.75v20.07H587.48v3.47c0,14.78,7.12,21.71,19.34,21.71,8.94,0,17.33-1.83,25.72-4.38l4.2,17.52a79.51,79.51,0,0,1-29.92,5.29c-24.08,0-40.5-13.87-40.5-40.14Zm53.64.91v-4.38c0-9.85-6.39-17.33-16.24-17.33-9.49,0-16.24,6.94-16.24,18.61v3.1Z"/><path class="cls-4" d="M658.63,502.47c0-25.54,17-39,37.76-39,20.62,0,37.41,13.5,37.41,39v58H712.45v-57.1c0-14.23-6.39-21.53-16.06-21.53-9.85,0-16.6,7.3-16.6,21.53v57.1H658.63Z"/><path class="cls-5" d="M746.74,463.88h21.35l8.39,59.29c1.64,11,5.47,17,14,17h6.75l9.49-76.26h21.34L810.6,597.06h-21l5.11-38.49H789.8c-21.53,0-31.56-13.69-34.48-33.57Z"/><path class="cls-6" d="M839.42,503.2c0-27,17.7-39.77,36.85-39.77a37.33,37.33,0,0,1,18.61,5.47v-42h21.53v96.33c0,25.17-17.88,39.59-38.49,39.59-20.8,0-38.5-14.42-38.5-39.59Zm38.5,41.23c9.66,0,17-7.12,17-22.08V486.78c-5.47-2.92-11.13-4.93-16.78-4.93-9.67,0-17.52,5.84-17.52,22.26v18.24C860.58,537.31,868.25,544.43,877.92,544.43Z"/><path class="cls-7" d="M560.44,464.44l-31,97.53H525s-4.1-13.9-7.56-25.68c2.07-8.86,20.49-71.85,20.49-71.85Z"/><path class="cls-8" d="M525,562H507.4a4,4,0,0,1-3.86-2.82l-30.12-94.71H496c.06.2,19.28,64.63,21.41,71.85C520.85,548.07,525,562,525,562Z"/></svg>